<mxfile host="app.diagrams.net" agent="Mozilla/5.0 (Windows NT 10.0; Win64; x64) AppleWebKit/537.36 (KHTML, like Gecko) Chrome/128.0.0.0 Safari/537.36" version="24.7.16">
  <diagram id="C5RBs43oDa-KdzZeNtuy" name="Page-1">
    <mxGraphModel dx="1035" dy="511" grid="1" gridSize="10" guides="1" tooltips="1" connect="1" arrows="1" fold="1" page="1" pageScale="1" pageWidth="827" pageHeight="1169" math="0" shadow="0">
      <root>
        <mxCell id="WIyWlLk6GJQsqaUBKTNV-0" />
        <mxCell id="WIyWlLk6GJQsqaUBKTNV-1" parent="WIyWlLk6GJQsqaUBKTNV-0" />
        <mxCell id="Mzk4BAvNmWmfT0XhzGUU-3" value="Use Case Diagram -&amp;nbsp;Pharmacy E-commerce" style="shape=umlFrame;whiteSpace=wrap;html=1;pointerEvents=0;recursiveResize=0;container=1;collapsible=0;width=280;height=30;" vertex="1" parent="WIyWlLk6GJQsqaUBKTNV-1">
          <mxGeometry x="100" y="180" width="610" height="730" as="geometry" />
        </mxCell>
        <mxCell id="Mzk4BAvNmWmfT0XhzGUU-7" value="list medicine" style="ellipse;" vertex="1" parent="Mzk4BAvNmWmfT0XhzGUU-3">
          <mxGeometry x="90" y="60" width="130" height="50" as="geometry" />
        </mxCell>
        <mxCell id="Mzk4BAvNmWmfT0XhzGUU-19" style="edgeStyle=orthogonalEdgeStyle;rounded=0;orthogonalLoop=1;jettySize=auto;html=1;exitX=0;exitY=0.5;exitDx=0;exitDy=0;curved=1;" edge="1" parent="Mzk4BAvNmWmfT0XhzGUU-3" source="Mzk4BAvNmWmfT0XhzGUU-15">
          <mxGeometry relative="1" as="geometry">
            <mxPoint x="-30" y="170" as="targetPoint" />
          </mxGeometry>
        </mxCell>
        <mxCell id="Mzk4BAvNmWmfT0XhzGUU-15" value="add medicine to cart" style="ellipse;" vertex="1" parent="Mzk4BAvNmWmfT0XhzGUU-3">
          <mxGeometry x="95" y="130" width="130" height="50" as="geometry" />
        </mxCell>
        <mxCell id="Mzk4BAvNmWmfT0XhzGUU-20" style="edgeStyle=orthogonalEdgeStyle;rounded=0;orthogonalLoop=1;jettySize=auto;html=1;strokeColor=none;curved=1;exitX=0.368;exitY=0.034;exitDx=0;exitDy=0;exitPerimeter=0;" edge="1" parent="Mzk4BAvNmWmfT0XhzGUU-3" source="Mzk4BAvNmWmfT0XhzGUU-18">
          <mxGeometry relative="1" as="geometry">
            <mxPoint x="-30" y="210" as="targetPoint" />
            <mxPoint x="90" y="270" as="sourcePoint" />
            <Array as="points">
              <mxPoint x="142" y="210" />
            </Array>
          </mxGeometry>
        </mxCell>
        <mxCell id="Mzk4BAvNmWmfT0XhzGUU-21" style="edgeStyle=orthogonalEdgeStyle;rounded=0;orthogonalLoop=1;jettySize=auto;html=1;exitX=-0.017;exitY=0.399;exitDx=0;exitDy=0;curved=1;exitPerimeter=0;" edge="1" parent="Mzk4BAvNmWmfT0XhzGUU-3" source="Mzk4BAvNmWmfT0XhzGUU-18">
          <mxGeometry relative="1" as="geometry">
            <mxPoint x="-30" y="190" as="targetPoint" />
            <Array as="points">
              <mxPoint x="30" y="220" />
              <mxPoint x="30" y="190" />
            </Array>
          </mxGeometry>
        </mxCell>
        <mxCell id="Mzk4BAvNmWmfT0XhzGUU-18" value="add medicine to wishlist" style="ellipse;" vertex="1" parent="Mzk4BAvNmWmfT0XhzGUU-3">
          <mxGeometry x="100" y="200" width="140" height="50" as="geometry" />
        </mxCell>
        <mxCell id="Mzk4BAvNmWmfT0XhzGUU-27" style="edgeStyle=orthogonalEdgeStyle;rounded=0;orthogonalLoop=1;jettySize=auto;html=1;exitX=0;exitY=0.5;exitDx=0;exitDy=0;entryX=1;entryY=0.5;entryDx=0;entryDy=0;curved=1;dashed=1;dashPattern=8 8;" edge="1" parent="Mzk4BAvNmWmfT0XhzGUU-3" source="Mzk4BAvNmWmfT0XhzGUU-23" target="Mzk4BAvNmWmfT0XhzGUU-22">
          <mxGeometry relative="1" as="geometry" />
        </mxCell>
        <mxCell id="Mzk4BAvNmWmfT0XhzGUU-29" value="&amp;lt;&amp;lt;extends&amp;gt;&amp;gt;" style="edgeLabel;html=1;align=center;verticalAlign=middle;resizable=0;points=[];" vertex="1" connectable="0" parent="Mzk4BAvNmWmfT0XhzGUU-27">
          <mxGeometry x="0.0065" y="-3" relative="1" as="geometry">
            <mxPoint x="8" y="-6" as="offset" />
          </mxGeometry>
        </mxCell>
        <mxCell id="Mzk4BAvNmWmfT0XhzGUU-31" style="edgeStyle=orthogonalEdgeStyle;rounded=0;orthogonalLoop=1;jettySize=auto;html=1;exitX=0;exitY=0;exitDx=0;exitDy=0;curved=1;" edge="1" parent="Mzk4BAvNmWmfT0XhzGUU-3" source="Mzk4BAvNmWmfT0XhzGUU-22">
          <mxGeometry relative="1" as="geometry">
            <mxPoint x="-30" y="220" as="targetPoint" />
            <Array as="points">
              <mxPoint x="119" y="340" />
              <mxPoint x="10" y="340" />
              <mxPoint x="10" y="220" />
            </Array>
          </mxGeometry>
        </mxCell>
        <mxCell id="Mzk4BAvNmWmfT0XhzGUU-50" style="edgeStyle=orthogonalEdgeStyle;rounded=0;orthogonalLoop=1;jettySize=auto;html=1;entryX=0.5;entryY=1;entryDx=0;entryDy=0;curved=1;dashed=1;dashPattern=8 8;exitX=0.707;exitY=0.008;exitDx=0;exitDy=0;exitPerimeter=0;" edge="1" parent="Mzk4BAvNmWmfT0XhzGUU-3" source="Mzk4BAvNmWmfT0XhzGUU-22" target="Mzk4BAvNmWmfT0XhzGUU-33">
          <mxGeometry relative="1" as="geometry">
            <Array as="points">
              <mxPoint x="260" y="350" />
              <mxPoint x="260" y="250" />
              <mxPoint x="313" y="250" />
            </Array>
          </mxGeometry>
        </mxCell>
        <mxCell id="Mzk4BAvNmWmfT0XhzGUU-51" value="&amp;lt;&amp;lt;extends&amp;gt;&amp;gt;" style="edgeLabel;html=1;align=center;verticalAlign=middle;resizable=0;points=[];" vertex="1" connectable="0" parent="Mzk4BAvNmWmfT0XhzGUU-50">
          <mxGeometry x="0.3225" y="9" relative="1" as="geometry">
            <mxPoint as="offset" />
          </mxGeometry>
        </mxCell>
        <mxCell id="Mzk4BAvNmWmfT0XhzGUU-22" value="place order" style="ellipse;" vertex="1" parent="Mzk4BAvNmWmfT0XhzGUU-3">
          <mxGeometry x="100" y="350" width="130" height="50" as="geometry" />
        </mxCell>
        <mxCell id="Mzk4BAvNmWmfT0XhzGUU-41" style="edgeStyle=orthogonalEdgeStyle;rounded=0;orthogonalLoop=1;jettySize=auto;html=1;exitX=1;exitY=0.5;exitDx=0;exitDy=0;curved=1;" edge="1" parent="Mzk4BAvNmWmfT0XhzGUU-3" source="Mzk4BAvNmWmfT0XhzGUU-23">
          <mxGeometry relative="1" as="geometry">
            <mxPoint x="650" y="200" as="targetPoint" />
            <Array as="points">
              <mxPoint x="600" y="365" />
              <mxPoint x="600" y="200" />
            </Array>
          </mxGeometry>
        </mxCell>
        <mxCell id="Mzk4BAvNmWmfT0XhzGUU-23" value="review &amp; confirm order" style="ellipse;" vertex="1" parent="Mzk4BAvNmWmfT0XhzGUU-3">
          <mxGeometry x="370" y="340" width="161" height="50" as="geometry" />
        </mxCell>
        <mxCell id="Mzk4BAvNmWmfT0XhzGUU-42" style="edgeStyle=orthogonalEdgeStyle;rounded=0;orthogonalLoop=1;jettySize=auto;html=1;exitX=1;exitY=0.5;exitDx=0;exitDy=0;curved=1;" edge="1" parent="Mzk4BAvNmWmfT0XhzGUU-3" source="Mzk4BAvNmWmfT0XhzGUU-24">
          <mxGeometry relative="1" as="geometry">
            <mxPoint x="650" y="180" as="targetPoint" />
            <Array as="points">
              <mxPoint x="590" y="285" />
              <mxPoint x="590" y="180" />
            </Array>
          </mxGeometry>
        </mxCell>
        <mxCell id="Mzk4BAvNmWmfT0XhzGUU-24" value="prepare order" style="ellipse;" vertex="1" parent="Mzk4BAvNmWmfT0XhzGUU-3">
          <mxGeometry x="378.25" y="260" width="144.5" height="50" as="geometry" />
        </mxCell>
        <mxCell id="Mzk4BAvNmWmfT0XhzGUU-44" style="edgeStyle=orthogonalEdgeStyle;rounded=0;orthogonalLoop=1;jettySize=auto;html=1;exitX=0;exitY=0.5;exitDx=0;exitDy=0;curved=1;" edge="1" parent="Mzk4BAvNmWmfT0XhzGUU-3" source="Mzk4BAvNmWmfT0XhzGUU-30">
          <mxGeometry relative="1" as="geometry">
            <mxPoint x="-20" y="210" as="targetPoint" />
            <Array as="points">
              <mxPoint x="105" y="300" />
              <mxPoint x="20" y="300" />
              <mxPoint x="20" y="210" />
            </Array>
          </mxGeometry>
        </mxCell>
        <mxCell id="Mzk4BAvNmWmfT0XhzGUU-30" value="add Discount" style="ellipse;" vertex="1" parent="Mzk4BAvNmWmfT0XhzGUU-3">
          <mxGeometry x="105" y="280" width="130" height="50" as="geometry" />
        </mxCell>
        <mxCell id="Mzk4BAvNmWmfT0XhzGUU-38" style="edgeStyle=orthogonalEdgeStyle;rounded=0;orthogonalLoop=1;jettySize=auto;html=1;exitX=0.5;exitY=0;exitDx=0;exitDy=0;entryX=0.5;entryY=1;entryDx=0;entryDy=0;dashed=1;dashPattern=8 8;" edge="1" parent="Mzk4BAvNmWmfT0XhzGUU-3" source="Mzk4BAvNmWmfT0XhzGUU-33" target="Mzk4BAvNmWmfT0XhzGUU-35">
          <mxGeometry relative="1" as="geometry" />
        </mxCell>
        <mxCell id="Mzk4BAvNmWmfT0XhzGUU-40" value="&amp;lt;&amp;lt;includes&amp;gt;&amp;gt;" style="edgeLabel;html=1;align=center;verticalAlign=middle;resizable=0;points=[];" vertex="1" connectable="0" parent="Mzk4BAvNmWmfT0XhzGUU-38">
          <mxGeometry x="0.0104" relative="1" as="geometry">
            <mxPoint as="offset" />
          </mxGeometry>
        </mxCell>
        <mxCell id="Mzk4BAvNmWmfT0XhzGUU-33" value="check Discount" style="ellipse;" vertex="1" parent="Mzk4BAvNmWmfT0XhzGUU-3">
          <mxGeometry x="248.25" y="160" width="130" height="50" as="geometry" />
        </mxCell>
        <mxCell id="Mzk4BAvNmWmfT0XhzGUU-35" value="Apply Discount" style="ellipse;" vertex="1" parent="Mzk4BAvNmWmfT0XhzGUU-3">
          <mxGeometry x="248.25" y="60" width="130" height="50" as="geometry" />
        </mxCell>
        <mxCell id="Mzk4BAvNmWmfT0XhzGUU-45" value="Validate Payment" style="ellipse;" vertex="1" parent="Mzk4BAvNmWmfT0XhzGUU-3">
          <mxGeometry x="440" y="90" width="130" height="50" as="geometry" />
        </mxCell>
        <mxCell id="Mzk4BAvNmWmfT0XhzGUU-54" style="edgeStyle=orthogonalEdgeStyle;rounded=0;orthogonalLoop=1;jettySize=auto;html=1;exitX=0;exitY=0;exitDx=0;exitDy=0;strokeColor=default;curved=1;" edge="1" parent="Mzk4BAvNmWmfT0XhzGUU-3" source="Mzk4BAvNmWmfT0XhzGUU-53">
          <mxGeometry relative="1" as="geometry">
            <mxPoint x="-30" y="230" as="targetPoint" />
            <Array as="points">
              <mxPoint y="448" />
              <mxPoint y="230" />
            </Array>
          </mxGeometry>
        </mxCell>
        <mxCell id="Mzk4BAvNmWmfT0XhzGUU-53" value="add address" style="ellipse;" vertex="1" parent="Mzk4BAvNmWmfT0XhzGUU-3">
          <mxGeometry x="90" y="440" width="130" height="50" as="geometry" />
        </mxCell>
        <mxCell id="Mzk4BAvNmWmfT0XhzGUU-57" style="edgeStyle=orthogonalEdgeStyle;rounded=0;orthogonalLoop=1;jettySize=auto;html=1;exitX=0;exitY=0;exitDx=0;exitDy=0;curved=1;" edge="1" parent="Mzk4BAvNmWmfT0XhzGUU-3" source="Mzk4BAvNmWmfT0XhzGUU-56">
          <mxGeometry relative="1" as="geometry">
            <mxPoint x="-30" y="240" as="targetPoint" />
            <Array as="points">
              <mxPoint x="-10" y="528" />
              <mxPoint x="-10" y="240" />
            </Array>
          </mxGeometry>
        </mxCell>
        <mxCell id="Mzk4BAvNmWmfT0XhzGUU-56" value="add payment method" style="ellipse;" vertex="1" parent="Mzk4BAvNmWmfT0XhzGUU-3">
          <mxGeometry x="90" y="520" width="130" height="50" as="geometry" />
        </mxCell>
        <mxCell id="Mzk4BAvNmWmfT0XhzGUU-60" style="edgeStyle=orthogonalEdgeStyle;rounded=0;orthogonalLoop=1;jettySize=auto;html=1;exitX=1;exitY=0;exitDx=0;exitDy=0;entryX=0;entryY=1;entryDx=0;entryDy=0;curved=1;dashed=1;dashPattern=8 8;" edge="1" parent="Mzk4BAvNmWmfT0XhzGUU-3" source="Mzk4BAvNmWmfT0XhzGUU-58" target="Mzk4BAvNmWmfT0XhzGUU-24">
          <mxGeometry relative="1" as="geometry">
            <Array as="points">
              <mxPoint x="340" y="618" />
              <mxPoint x="340" y="330" />
              <mxPoint x="399" y="330" />
            </Array>
          </mxGeometry>
        </mxCell>
        <mxCell id="Mzk4BAvNmWmfT0XhzGUU-66" value="&amp;lt;&amp;lt;extends&amp;gt;&amp;gt;" style="edgeLabel;html=1;align=center;verticalAlign=middle;resizable=0;points=[];" vertex="1" connectable="0" parent="Mzk4BAvNmWmfT0XhzGUU-60">
          <mxGeometry x="0.0779" y="1" relative="1" as="geometry">
            <mxPoint as="offset" />
          </mxGeometry>
        </mxCell>
        <mxCell id="Mzk4BAvNmWmfT0XhzGUU-67" style="edgeStyle=orthogonalEdgeStyle;rounded=0;orthogonalLoop=1;jettySize=auto;html=1;exitX=0;exitY=0.5;exitDx=0;exitDy=0;curved=1;" edge="1" parent="Mzk4BAvNmWmfT0XhzGUU-3" source="Mzk4BAvNmWmfT0XhzGUU-58">
          <mxGeometry relative="1" as="geometry">
            <mxPoint x="-30" y="250" as="targetPoint" />
          </mxGeometry>
        </mxCell>
        <mxCell id="Mzk4BAvNmWmfT0XhzGUU-58" value="track order status " style="ellipse;" vertex="1" parent="Mzk4BAvNmWmfT0XhzGUU-3">
          <mxGeometry x="90" y="610" width="130" height="50" as="geometry" />
        </mxCell>
        <mxCell id="Mzk4BAvNmWmfT0XhzGUU-59" style="edgeStyle=orthogonalEdgeStyle;rounded=0;orthogonalLoop=1;jettySize=auto;html=1;entryX=0.347;entryY=1.008;entryDx=0;entryDy=0;entryPerimeter=0;dashed=1;dashPattern=8 8;curved=1;" edge="1" parent="Mzk4BAvNmWmfT0XhzGUU-3" source="Mzk4BAvNmWmfT0XhzGUU-58" target="Mzk4BAvNmWmfT0XhzGUU-23">
          <mxGeometry relative="1" as="geometry" />
        </mxCell>
        <mxCell id="Mzk4BAvNmWmfT0XhzGUU-65" value="&amp;lt;&amp;lt;includes&amp;gt;&amp;gt;" style="edgeLabel;html=1;align=center;verticalAlign=middle;resizable=0;points=[];" vertex="1" connectable="0" parent="Mzk4BAvNmWmfT0XhzGUU-59">
          <mxGeometry x="0.2242" y="46" relative="1" as="geometry">
            <mxPoint as="offset" />
          </mxGeometry>
        </mxCell>
        <mxCell id="Mzk4BAvNmWmfT0XhzGUU-62" style="edgeStyle=orthogonalEdgeStyle;rounded=0;orthogonalLoop=1;jettySize=auto;html=1;exitX=1;exitY=0;exitDx=0;exitDy=0;entryX=0.252;entryY=0.947;entryDx=0;entryDy=0;entryPerimeter=0;curved=1;dashed=1;dashPattern=8 8;" edge="1" parent="Mzk4BAvNmWmfT0XhzGUU-3" source="Mzk4BAvNmWmfT0XhzGUU-22" target="Mzk4BAvNmWmfT0XhzGUU-45">
          <mxGeometry relative="1" as="geometry">
            <Array as="points">
              <mxPoint x="370" y="358" />
              <mxPoint x="370" y="180" />
              <mxPoint x="473" y="180" />
            </Array>
          </mxGeometry>
        </mxCell>
        <mxCell id="Mzk4BAvNmWmfT0XhzGUU-63" value="&amp;lt;&amp;lt;includes&amp;gt;&amp;gt;" style="edgeLabel;html=1;align=center;verticalAlign=middle;resizable=0;points=[];" vertex="1" connectable="0" parent="Mzk4BAvNmWmfT0XhzGUU-62">
          <mxGeometry x="-0.1562" y="14" relative="1" as="geometry">
            <mxPoint x="14" y="-73" as="offset" />
          </mxGeometry>
        </mxCell>
        <mxCell id="Mzk4BAvNmWmfT0XhzGUU-74" style="edgeStyle=orthogonalEdgeStyle;rounded=0;orthogonalLoop=1;jettySize=auto;html=1;exitX=1;exitY=0.5;exitDx=0;exitDy=0;" edge="1" parent="Mzk4BAvNmWmfT0XhzGUU-3" source="Mzk4BAvNmWmfT0XhzGUU-68">
          <mxGeometry relative="1" as="geometry">
            <mxPoint x="640" y="485" as="targetPoint" />
          </mxGeometry>
        </mxCell>
        <mxCell id="Mzk4BAvNmWmfT0XhzGUU-68" value="get delivery info" style="ellipse;" vertex="1" parent="Mzk4BAvNmWmfT0XhzGUU-3">
          <mxGeometry x="440" y="460" width="130" height="50" as="geometry" />
        </mxCell>
        <mxCell id="Mzk4BAvNmWmfT0XhzGUU-70" value="confirm drop-off " style="ellipse;" vertex="1" parent="Mzk4BAvNmWmfT0XhzGUU-3">
          <mxGeometry x="440" y="555" width="130" height="50" as="geometry" />
        </mxCell>
        <mxCell id="Mzk4BAvNmWmfT0XhzGUU-71" style="edgeStyle=orthogonalEdgeStyle;rounded=0;orthogonalLoop=1;jettySize=auto;html=1;exitX=1;exitY=1;exitDx=0;exitDy=0;entryX=0.078;entryY=0.69;entryDx=0;entryDy=0;entryPerimeter=0;curved=1;dashed=1;dashPattern=8 8;" edge="1" parent="Mzk4BAvNmWmfT0XhzGUU-3" source="Mzk4BAvNmWmfT0XhzGUU-58" target="Mzk4BAvNmWmfT0XhzGUU-70">
          <mxGeometry relative="1" as="geometry" />
        </mxCell>
        <mxCell id="Mzk4BAvNmWmfT0XhzGUU-72" value="&amp;lt;&amp;lt;extends&amp;gt;&amp;gt;" style="edgeLabel;html=1;align=center;verticalAlign=middle;resizable=0;points=[];" vertex="1" connectable="0" parent="Mzk4BAvNmWmfT0XhzGUU-71">
          <mxGeometry x="0.0442" y="13" relative="1" as="geometry">
            <mxPoint as="offset" />
          </mxGeometry>
        </mxCell>
        <mxCell id="Mzk4BAvNmWmfT0XhzGUU-4" value="Customer" style="shape=umlActor;verticalLabelPosition=bottom;verticalAlign=top;html=1;" vertex="1" parent="WIyWlLk6GJQsqaUBKTNV-1">
          <mxGeometry x="20" y="350" width="30" height="60" as="geometry" />
        </mxCell>
        <mxCell id="Mzk4BAvNmWmfT0XhzGUU-5" value="Pharmacist" style="shape=umlActor;verticalLabelPosition=bottom;verticalAlign=top;html=1;" vertex="1" parent="WIyWlLk6GJQsqaUBKTNV-1">
          <mxGeometry x="760" y="340" width="30" height="60" as="geometry" />
        </mxCell>
        <mxCell id="Mzk4BAvNmWmfT0XhzGUU-6" value="delivery captain" style="shape=umlActor;verticalLabelPosition=bottom;verticalAlign=top;html=1;" vertex="1" parent="WIyWlLk6GJQsqaUBKTNV-1">
          <mxGeometry x="750" y="640" width="30" height="60" as="geometry" />
        </mxCell>
        <mxCell id="Mzk4BAvNmWmfT0XhzGUU-12" style="edgeStyle=orthogonalEdgeStyle;rounded=0;orthogonalLoop=1;jettySize=auto;html=1;curved=1;exitX=0;exitY=0.5;exitDx=0;exitDy=0;" edge="1" parent="WIyWlLk6GJQsqaUBKTNV-1" source="Mzk4BAvNmWmfT0XhzGUU-7">
          <mxGeometry relative="1" as="geometry">
            <mxPoint x="190.0000000000001" y="244.96" as="sourcePoint" />
            <mxPoint x="60" y="340" as="targetPoint" />
            <Array as="points">
              <mxPoint x="110" y="265" />
              <mxPoint x="110" y="340" />
            </Array>
          </mxGeometry>
        </mxCell>
        <mxCell id="Mzk4BAvNmWmfT0XhzGUU-75" style="edgeStyle=orthogonalEdgeStyle;rounded=0;orthogonalLoop=1;jettySize=auto;html=1;exitX=1;exitY=0;exitDx=0;exitDy=0;curved=1;" edge="1" parent="WIyWlLk6GJQsqaUBKTNV-1" source="Mzk4BAvNmWmfT0XhzGUU-70" target="Mzk4BAvNmWmfT0XhzGUU-6">
          <mxGeometry relative="1" as="geometry">
            <mxPoint x="730" y="680" as="targetPoint" />
            <Array as="points">
              <mxPoint x="651" y="700" />
              <mxPoint x="731" y="700" />
              <mxPoint x="731" y="680" />
            </Array>
          </mxGeometry>
        </mxCell>
      </root>
    </mxGraphModel>
  </diagram>
</mxfile>
